<svg width="1097" height="1162" viewBox="0 0 1097 1162" fill="none" xmlns="http://www.w3.org/2000/svg">
<path opacity="0.58" d="M1098.36 0.147855L1097.59 1161.21C1053.95 1161.97 1010.18 1143.16 982.512 1110.48C921.169 1037.83 945.625 918.283 877.206 851.911C837.208 813.109 854.893 766.802 798.318 765.812C760.158 760.999 717.556 685.345 529.503 712.271C443.2 718.499 393.902 629.741 436.397 534.409C456.138 490.174 492.123 454.98 519.385 414.828C546.646 374.529 565.339 322.851 545.356 278.784C504.789 189.336 351.601 207.518 297.789 124.938C273.588 87.8785 278.736 39.2729 301.633 0.728529L1098.36 0.29381L1098.36 0.147855Z" fill="url(#paint0_radial_187_131)"/>
<path opacity="0.6" d="M1098.36 0.147864L1097.64 1078.02C953.398 994.759 837.022 866.091 773.023 715.501C743.127 645.167 713.391 559.8 637.72 538.97C575.438 521.927 512.668 558.596 454.118 585.338C395.418 612.079 315.21 625.697 274.466 576.97C202.148 490.313 353.164 345.444 281.6 258.203C236.496 203.203 144.395 225.876 78.6598 196.575C7.3594 164.65 -15.901 71.5436 13.6379 0.739723L1098.36 0.147864Z" fill="url(#paint1_radial_187_131)"/>
<defs>
<radialGradient id="paint0_radial_187_131" cx="0" cy="0" r="1" gradientUnits="userSpaceOnUse" gradientTransform="translate(943.204 153.484) rotate(-0.0312624) scale(1359.03 1318.26)">
<stop offset="0.630208" stop-color="#6C63FF"/>
<stop offset="1" stop-color="white"/>
</radialGradient>
<radialGradient id="paint1_radial_187_131" cx="0" cy="0" r="1" gradientUnits="userSpaceOnUse" gradientTransform="translate(1009.44 106.743) rotate(-0.0312624) scale(1282 1243.54)">
<stop offset="0.0001" stop-color="#0075FF"/>
<stop offset="0.449867" stop-color="#0F00FF"/>
<stop offset="0.869792" stop-color="#0019FF"/>
</radialGradient>
</defs>
</svg>
