<svg width="240" height="58" viewBox="0 0 240 58" fill="none" xmlns="http://www.w3.org/2000/svg">
<path d="M72.1801 2.42625C69.3691 3.75594 66.8704 5.00742 66.7142 5.24207C66.519 5.43761 65.8944 7.43216 65.3087 9.70045C64.4108 13.0638 61.5997 23.5058 58.6326 34.5344C56.8757 41.0265 56.6024 42.1606 56.7586 42.1606C56.8757 42.1606 56.7586 42.4344 56.4853 42.7473C56.0558 43.2557 53.479 43.3339 37.7061 43.3339C25.0956 43.3339 19.3955 43.4512 19.3955 43.7641C19.3955 43.9596 19.5907 44.9373 19.825 45.9151L20.2544 47.6358H39.9315L59.6086 47.5967L60.1552 45.5631C62.6539 36.6854 64.0594 31.484 68.8225 13.4549C70.228 8.17522 70.3842 7.74502 70.9308 7.74502C71.0869 7.74502 73.2733 6.76731 75.7719 5.59405C80.2227 3.52129 80.3008 3.44307 80.3008 2.15249C80.3008 -0.780659 78.8953 -0.74155 72.1801 2.42625Z" fill="#FA8B02"/>
<path d="M8.07326 1.48765C8.07326 1.68319 7.48763 1.87873 6.74583 1.87873C6.00404 1.87873 5.26224 2.03517 5.14512 2.26982C5.02799 2.46537 4.52045 2.66091 4.05195 2.66091C3.5444 2.66091 2.91973 3.01289 2.6074 3.44308C2.29506 3.87328 1.8656 4.22525 1.59231 4.22525C-0.359784 4.22525 -0.594035 14.6282 1.31902 16.5445C1.59231 16.8573 1.82656 17.2875 1.82656 17.5613C1.82656 18.187 3.85674 22.2152 4.20811 22.2152C4.36428 22.2152 4.67661 22.7236 4.94991 23.3885C5.2232 24.0142 5.57458 24.5617 5.76979 24.5617C5.92595 24.5617 6.16021 24.9137 6.31637 25.3048C6.4335 25.735 7.01913 26.6345 7.60475 27.2602C8.19038 27.9251 9.08834 28.981 9.63493 29.6068C10.1815 30.2716 10.8062 30.8191 11.0795 30.8191C11.3137 30.8191 11.6651 31.1711 11.7822 31.6013C11.8994 32.0315 12.1727 32.3835 12.3679 32.3835C12.5631 32.3835 12.8364 32.7355 12.9535 33.1656C13.0706 33.5958 13.3829 33.9478 13.5782 33.9478C13.8124 33.9478 14.359 34.3389 14.8665 34.8473C16.233 36.1379 17.4043 37.0765 17.7556 37.0765C17.9118 37.0765 18.3803 37.7805 18.7707 38.6409L19.5125 40.2052H37.0033H54.455L55.1187 37.9369C55.4701 36.7245 56.0167 34.73 56.368 33.5567C56.6804 32.3835 57.0708 31.0538 57.266 30.6236C57.4612 30.1934 57.6955 29.2157 57.8516 28.4726C57.9687 27.7295 58.164 26.5172 58.3201 25.8132C58.4372 25.1484 58.6715 24.5617 58.8667 24.5617C59.0619 24.5617 59.2181 23.936 59.2181 23.1929C59.2181 22.4108 59.4523 21.3157 59.7647 20.7291C60.077 20.1425 60.4284 18.9301 60.5846 18.1088C60.7407 17.2484 61.0921 15.8014 61.4044 14.8628C62.4195 11.8123 63.5517 12.047 47.7007 12.047H33.4505V13.846C33.4505 15.9578 34.1923 19.0865 34.6608 19.0865C34.856 19.0865 35.0121 19.3994 35.0121 19.7514C35.0121 20.3771 36.6129 23.1147 37.7451 24.4444C37.9403 24.7182 38.1355 25.1093 38.1355 25.3048C38.1355 25.5395 38.7211 26.3216 39.4239 27.0647C41.0246 28.7855 42.0397 30.1152 42.0397 30.5063C42.0397 30.6627 42.2739 30.8191 42.5472 30.8191C42.7815 30.8191 43.3671 31.3666 43.7966 31.9924C44.226 32.6181 44.7726 33.1656 44.9678 33.1656C45.2021 33.1656 45.6315 33.5176 45.9439 33.9478C46.2562 34.378 46.6466 34.73 46.7637 34.73C47.0761 34.73 50.2385 37.7805 50.2385 38.0933C50.2385 38.3671 47.7398 36.9592 47.5836 36.5681C47.5055 36.4117 47.1151 36.2943 46.6856 36.2943C46.2952 36.2943 45.9439 36.0988 45.9439 35.9033C45.9439 35.6686 45.6706 35.5122 45.3582 35.5122C45.0459 35.5122 44.7726 35.3166 44.7726 35.1211C44.7726 34.8864 44.6164 34.73 44.4212 34.73C44.226 34.73 43.1328 33.8305 42.0397 32.7746C40.9465 31.6795 39.9705 30.8191 39.8533 30.8191C39.6191 30.8191 34.5046 25.5004 33.8409 24.5617C33.5285 24.0924 32.9429 23.3494 32.5915 22.9192C32.2011 22.489 31.8107 21.785 31.6936 21.3939C31.5374 20.9638 31.3032 20.6509 31.108 20.6509C30.9127 20.6509 30.6394 20.2989 30.5223 19.8687C30.4052 19.4385 30.0538 18.8519 29.8196 18.6172C28.4531 17.1702 27.0476 11.4604 27.3599 8.76186C27.8675 4.92921 30.249 3.32576 35.4416 3.28665C37.1204 3.24754 38.3697 3.13021 38.2136 3.01289C37.667 2.50447 35.2464 1.87873 33.919 1.87873C33.1772 1.87873 31.8888 1.68319 31.0689 1.40943C29.0778 0.822803 24.3537 1.60498 23.2605 2.70002C22.8701 3.0911 22.4016 3.44308 22.2845 3.44308C21.8941 3.44308 20.9571 4.53812 20.9571 5.04654C20.9571 5.28119 20.6838 5.71138 20.2934 5.98514C19.8639 6.29801 19.5906 7.27573 19.4344 9.15294L19.2002 11.8514L16.3111 11.9688L13.422 12.0861L13.6562 14.1197C13.8905 16.1925 15.0617 20.2989 15.5302 20.6509C15.6474 20.7682 16.1549 21.6286 16.6625 22.5672C17.131 23.5449 17.7166 24.5226 17.9899 24.8355C19.1221 26.087 19.3954 26.5172 19.3954 26.9083C19.3954 27.1429 19.6687 27.4167 19.981 27.534C20.2934 27.6513 20.6447 28.0815 20.7619 28.5117C20.918 28.9028 21.2694 29.2548 21.5817 29.2548C21.8941 29.2548 22.1283 29.4112 22.1283 29.6068C22.1283 30.1152 25.8763 33.9478 26.3839 33.9478C26.5791 33.9478 26.8524 34.2607 27.0086 34.6127C27.1257 35.0038 27.9065 35.825 28.7654 36.4899C30.4442 37.7805 30.9127 38.7191 29.3511 37.7022C28.8435 37.3503 28.1408 37.0765 27.7894 37.0765C27.4771 37.0765 27.2038 36.881 27.2038 36.6854C27.2038 36.4508 26.8524 36.2943 26.3839 36.2943C25.9154 36.2943 25.4859 35.9815 25.3688 35.5513C25.2907 35.1602 24.7441 34.6127 24.2366 34.3389C23.729 34.026 23.2996 33.6741 23.2996 33.4785C23.2996 33.3221 23.0653 33.1656 22.792 33.1656C22.5187 33.1656 22.0502 32.8137 21.7379 32.3835C21.4256 31.9533 21.0352 31.6013 20.879 31.6013C20.1762 31.6013 11.9774 22.5281 11.9774 21.785C11.9774 21.6286 11.548 21.042 11.0014 20.4944C10.4548 19.9469 10.0253 19.243 10.0253 18.891C10.0253 18.5781 9.86918 18.3044 9.63493 18.3044C9.43972 18.3044 9.24451 18.0306 9.24451 17.7177C9.24451 17.3658 8.93218 16.4663 8.50272 15.645C6.902 12.4381 7.05817 7.31483 8.81505 5.47673C10.1815 3.9906 13.7734 2.89556 16.5063 3.13021C17.6776 3.24754 18.6146 3.24754 18.6146 3.16932C18.6146 2.85645 16.272 2.1916 13.3439 1.68319C9.63493 1.01834 8.07326 0.940128 8.07326 1.48765ZM26.4229 31.2102C26.4229 31.4058 26.2668 31.6013 26.0325 31.6013C25.8373 31.6013 25.6421 31.4058 25.6421 31.2102C25.6421 30.9756 25.8373 30.8191 26.0325 30.8191C26.2668 30.8191 26.4229 30.9756 26.4229 31.2102Z" fill="#FA8B02"/>
<path d="M95.6052 16.4271C94.9415 17.092 94.9415 37.8978 95.6052 38.5626C96.1908 39.1492 97.5963 39.1492 98.182 38.5626C98.4943 38.2497 98.6505 36.6072 98.6505 33.674V29.2548H100.407H102.164V33.674C102.164 36.6072 102.32 38.2497 102.633 38.5626C103.335 39.2666 104.819 39.1101 105.288 38.2889C105.522 37.8195 105.678 33.5567 105.678 27.182C105.678 15.7623 105.6 15.4103 103.414 16.1925C102.359 16.5444 102.359 16.5836 102.242 21.0419C102.164 23.7013 101.969 25.6177 101.735 25.7741C101.501 25.9305 100.759 26.0087 100.056 25.9696L98.8457 25.8914L98.7286 21.433C98.6895 18.9692 98.4162 16.74 98.182 16.4662C97.6744 15.8405 96.2299 15.8014 95.6052 16.4271Z" fill="#474747"/>
<path d="M110.87 16.2316C110.363 16.3098 109.972 16.6227 109.972 16.8573C109.738 28.1988 109.933 37.8978 110.363 38.4453C111.065 39.3057 118.249 39.3057 119.108 38.4062C119.85 37.6631 119.889 37.0374 119.264 36.177C118.874 35.7077 118.015 35.5122 116.024 35.4339L113.291 35.3166V32.3835V29.4503L115.829 29.2548L118.366 29.0592L118.483 27.6122C118.64 25.9696 118.366 25.8523 115.048 25.6568L113.291 25.5394V22.6063V19.6732L116.102 19.5558C118.522 19.4776 118.991 19.3212 119.381 18.6172C119.694 18.0306 119.694 17.5613 119.381 16.8964C118.991 15.9969 118.796 15.9578 115.36 15.9969C113.369 16.0361 111.339 16.1534 110.87 16.2316Z" fill="#474747"/>
<path d="M123.325 16.4271C122.661 17.092 122.661 37.8978 123.325 38.5626C123.95 39.1884 131.524 39.1884 132.148 38.5626C132.734 37.976 132.734 36.5681 132.148 35.9814C131.875 35.7077 130.587 35.5121 129.025 35.5121H126.37V26.1261C126.37 17.2875 126.331 16.74 125.628 16.3489C124.613 15.8405 123.911 15.8405 123.325 16.4271Z" fill="#474747"/>
<path d="M136.911 16.4662L135.935 16.9747L135.818 27.6122L135.74 38.2498L136.755 38.7191C138.707 39.6186 139.059 38.9146 139.176 33.8696L139.293 29.333L140.503 29.0983C141.167 28.981 142.104 28.8637 142.612 28.8637C143.08 28.8637 144.173 28.2379 144.993 27.4949L146.477 26.1261V22.6454C146.477 19.4776 146.399 19.0474 145.501 18.1088C144.954 17.5222 143.978 16.7791 143.275 16.5054C141.714 15.8405 138.2 15.8014 136.911 16.4662ZM142.534 20.1033C143.392 20.9246 143.353 24.0924 142.494 25.031C142.143 25.4221 141.323 25.735 140.542 25.735H139.254V22.6063V19.4776H140.581C141.323 19.4776 142.221 19.7514 142.534 20.1033Z" fill="#474747"/>
<path d="M150.967 16.3489C150.459 16.6618 150.381 18.3043 150.459 27.534C150.498 35.5904 150.654 38.4453 151.006 38.6799C151.787 39.1492 157.877 39.071 158.97 38.5626C160.181 38.0151 160.298 36.4899 159.126 35.9032C158.697 35.6686 157.604 35.473 156.706 35.5121C153.504 35.6295 153.7 35.8641 153.7 32.3835C153.7 28.981 153.582 29.0983 156.315 29.2548C157.916 29.333 159.165 28.629 159.165 27.6904C159.165 26.7127 157.487 25.5785 156.472 25.9305C156.081 26.0479 155.261 26.0479 154.715 25.8914C153.739 25.6568 153.7 25.5394 153.7 22.5672V19.4776H156.393C159.322 19.4776 160.063 19.0474 159.829 17.4831C159.712 16.74 159.361 16.5053 158.15 16.2707C155.886 15.8796 151.63 15.9187 150.967 16.3489Z" fill="#474747"/>
<path d="M164.319 16.3098C163.811 16.6227 163.772 18.0697 163.85 34.6518C163.85 38.0933 163.89 38.2889 164.827 38.7191C166.583 39.5012 166.935 38.7191 167.052 33.8305L167.169 29.4503L168.223 29.333C168.965 29.2548 169.629 29.5285 170.292 30.1934C171.19 31.0929 171.268 31.4449 171.268 34.6909C171.268 37.8587 171.347 38.2498 172.049 38.6408C173.181 39.2275 174.353 38.7582 174.626 37.624C175.055 35.8641 174.587 29.8023 173.923 28.8246C173.377 27.9642 173.377 27.7686 174.079 26.3607C174.704 25.1484 174.821 24.2489 174.704 22.0588C174.548 18.3435 173.611 16.9747 170.839 16.388C168.535 15.8796 165.022 15.8405 164.319 16.3098ZM170.722 20.0251C171.307 20.4553 171.464 21.0028 171.386 22.6063C171.347 23.7013 171.19 24.7573 171.034 24.9919C170.644 25.6568 168.926 26.1261 167.911 25.8914C167.013 25.6568 166.974 25.5003 166.974 22.841C166.974 21.2766 167.091 19.8687 167.247 19.7514C167.716 19.2821 169.941 19.4776 170.722 20.0251Z" fill="#474747"/>
<path d="M187.353 16.4271C187.002 16.7791 186.885 19.7905 186.885 27.534C186.885 39.2666 186.963 39.5794 189.149 38.7973C190.047 38.4844 190.242 38.1715 190.399 36.4899C190.555 34.8473 190.633 34.6909 190.867 35.5121C191.023 36.0597 191.179 36.8418 191.179 37.272C191.179 37.7804 191.609 38.2498 192.429 38.6017C193.522 39.1101 193.678 39.071 194.108 38.4844C194.381 38.1324 194.771 36.9983 194.927 35.9814L195.24 34.1433L195.474 36.2943C195.63 38.2106 195.786 38.4844 196.762 38.7973C198.949 39.5794 199.027 39.1492 198.988 27.4949C198.988 21.7068 198.832 16.8182 198.636 16.6227C198.441 16.4271 197.699 16.3489 196.997 16.4271L195.669 16.5445L194.459 22.7236C193.795 26.087 193.171 28.981 193.053 29.0983C192.819 29.333 192.312 27.3384 191.375 22.2152C190.555 17.7959 190.086 16.4662 189.383 16.1925C188.446 15.8405 187.861 15.9187 187.353 16.4271Z" fill="#474747"/>
<path d="M218.626 16.2316C218.236 16.3489 218.119 19.0083 218.119 27.4949C218.119 37.2329 218.197 38.6017 218.743 38.7973C219.095 38.9146 221.047 39.0319 223.155 39.0319C227.137 39.0319 227.879 38.7582 227.879 37.272C227.879 35.9032 227.098 35.5121 224.287 35.5121H221.632V26.2043C221.632 19.4776 221.515 16.7791 221.164 16.4271C220.695 15.9578 219.485 15.8405 218.626 16.2316Z" fill="#474747"/>
<path d="M207.069 16.6227C206.796 17.0529 203.477 30.6627 202.619 34.8473C201.994 37.8587 201.994 38.328 202.501 38.6409C204.18 39.7359 205.156 38.8755 205.976 35.6686L206.64 32.9701H208.358H210.115L210.7 35.7077C211.208 38.0933 211.442 38.4844 212.379 38.7973C213.199 39.1102 213.589 39.0319 214.097 38.5626C214.682 37.976 214.604 37.3503 213.082 30.7409C209.802 16.2316 209.88 16.5445 208.475 16.4271C207.811 16.3489 207.186 16.4663 207.069 16.6227ZM208.748 26.2825C208.748 26.5563 208.865 27.3776 208.982 28.0424C209.217 29.0983 209.139 29.2548 208.358 29.2548C207.577 29.2548 207.499 29.0983 207.733 28.0424C207.85 27.3776 207.967 26.5563 207.967 26.2825C207.967 25.9697 208.163 25.735 208.358 25.735C208.592 25.735 208.748 25.9697 208.748 26.2825Z" fill="#474747"/>
<path d="M231.041 16.8964C230.729 17.2875 230.612 20.338 230.651 27.534C230.651 33.0483 230.768 37.8196 230.885 38.1324C231.041 38.5235 232.134 38.6408 235.336 38.6408C239.982 38.6408 240.333 38.4844 239.826 36.4899C239.591 35.5513 239.435 35.5121 237.327 35.5904C236.078 35.6295 234.867 35.5513 234.594 35.3557C234.243 35.1602 234.126 32.8137 234.126 26.3216C234.126 18.891 234.047 17.4831 233.501 16.9747C232.759 16.1925 231.627 16.1534 231.041 16.8964Z" fill="#474747"/>
<path d="M26.4227 49.9041C25.5248 50.8036 25.2515 51.4294 25.2515 52.6026C25.2515 54.9491 25.6028 55.6922 27.0083 56.4744C28.7262 57.3739 30.1317 56.7872 30.9516 54.7927C32.0057 52.3289 30.8735 49.513 28.6871 49.0046C27.8282 48.77 27.3988 48.9655 26.4227 49.9041Z" fill="#FA8B02"/>
<path d="M51.3229 49.9793C49.527 51.7783 49.566 55.0243 51.401 56.4713C52.4551 57.2926 53.4702 57.4881 53.4702 56.8624C53.4702 56.6277 53.314 56.4713 53.1188 56.4713C52.6113 56.4713 51.7914 54.203 51.8304 52.8733C51.8304 52.2085 52.2209 51.1525 52.6503 50.5659C53.1188 49.9402 53.4702 49.3535 53.4702 49.2362C53.4702 48.6887 52.1428 49.158 51.3229 49.9793Z" fill="#FA8B02"/>
<path d="M22.1281 50.4517C21.1521 52.0942 21.1521 53.7368 22.0891 55.3402C22.7918 56.4744 24.2754 57.3348 24.7439 56.8655C24.861 56.7873 24.5487 56.1224 24.0802 55.4576C23.0651 54.0105 22.948 51.9378 23.8459 50.569C24.6658 49.3566 24.6268 49.2002 23.6898 49.2002C23.2213 49.2002 22.5966 49.7086 22.1281 50.4517Z" fill="#FA8B02"/>
<path d="M55.1971 49.4739C53.7135 49.865 52.9326 52.8764 53.7916 54.7927C54.3772 56.1224 57.2663 57.3348 57.2663 56.2788C57.2663 56.0833 57.6177 55.8487 58.0081 55.7313C59.3745 55.3794 59.5698 51.8987 58.3595 50.2952C57.8129 49.5522 56.2902 49.1611 55.1971 49.4739Z" fill="#FA8B02"/>
</svg>
